:SAMPLES-PER-SECOND 30
:FULLY-SPECIFIED
:DEGREES
468
root  -17.1431 34.8071 -0.506485 -60.3779 -71.1412 46.2778
RightUpLeg  -9.82559 -28.9637 -32.2679
RightLeg  63.7095 -1.51576 -3.92982
RightFoot  -22.3291 1.33431 15.3002
RightToes  6.35927e-011 1.30204e-014 -6.03759e-014
Spine  27.1288 -1.25197 6.0158
Spine1  0.582576 0.963967 -1.02981
HEad  -17.4436 -11.7175 -13.5331
LeftShoulder1  1.44068 -2.29761 -18.2407
LeftArm  -7.77317 30.4594 -43.9751
LeftForeArm  91.8777 -80.0755 -61.8432
LeftHand  -0.970386 18.2592 -7.47164
RightShoulder  0.527985 -1.20826 16.4632
RightArm  -12.2006 -28.2292 54.5209
RightForeArm  -162.229 66.542 160.294
RightHand  0.301243 -12.9954 -5.31605
LeftUpLeg  -28.8171 34.1337 15.9489
LeftLeg  73.8065 -1.2857 -3.50175
LeftFoot  29.2337 14.0408 -37.4604
LeftToes  7.40077e-010 7.2695e-011 -6.03601e-011
469
root  -17.231 34.9726 -0.171542 -74.1651 -69.5428 58.3724
RightUpLeg  -9.64275 -30.4131 -40.2516
RightLeg  65.986 1.75582 3.66887
RightFoot  -17.1087 0.581116 13.9748
RightToes  6.35927e-011 1.30204e-014 -6.03759e-014
Spine  29.2829 0.177387 8.71257
Spine1  -0.969719 4.03584 -7.36902
HEad  -13.8726 -15.5179 -15.1118
LeftShoulder1  1.31568 -2.04547 -17.0208
LeftArm  -9.14829 34.097 -41.3749
LeftForeArm  113.156 -81.195 -83.2096
LeftHand  -0.612613 16.3116 -5.35608
RightShoulder  0.422363 -1.50841 14.4913
RightArm  -10.4424 -25.0427 52.7873
RightForeArm  -161.347 60.4567 165.033
RightHand  0.422113 -12.3407 -7.7972
LeftUpLeg  -34.1422 50.307 17.3744
LeftLeg  85.5517 -0.321613 0.851726
LeftFoot  30.9537 13.846 -35.3401
LeftToes  7.40077e-010 7.2695e-011 -6.03601e-011
470
root  -17.4584 35.0538 0.290403 -81.0878 -68.7141 65.4459
RightUpLeg  -11.4934 -29.8481 -43.9478
RightLeg  67.7878 3.56172 8.80274
RightFoot  -12.914 0.121772 15.5271
RightToes  6.35927e-011 1.30204e-014 -6.03759e-014
Spine  29.5284 1.57708 10.5712
Spine1  -2.62928 5.94349 -9.83433
HEad  -10.6375 -16.8492 -17.3886
LeftShoulder1  1.13949 -1.45869 -16.2134
LeftArm  -10.8126 38.0467 -39.7607
LeftForeArm  131.354 -81.1811 -100.311
LeftHand  -0.473433 15.1469 -4.46306
RightShoulder  0.360524 -1.69741 13.1713
RightArm  -10.1442 -21.5488 49.2792
RightForeArm  -160.134 56.6849 167.179
RightHand  0.374574 -13.0724 -6.51286
LeftUpLeg  -42.5435 60.5079 17.9527
LeftLeg  97.3476 -1.23647 6.1253
LeftFoot  26.9489 11.6482 -33.2656
LeftToes  7.40077e-010 7.2695e-011 -6.03601e-011
471
root  -17.6828 35.2731 0.696151 -79.2311 -67.7512 63.8589
RightUpLeg  -11.1464 -27.4748 -45.4054
RightLeg  67.0869 4.04661 9.79801
RightFoot  -10.5001 -0.206528 18.5579
RightToes  6.35927e-011 1.30204e-014 -6.03759e-014
Spine  28.3827 2.12712 10.2258
Spine1  -3.04424 5.73916 -7.88881
HEad  -9.09586 -16.5474 -19.1524
LeftShoulder1  0.979829 -0.797672 -16.0118
LeftArm  -13.1027 41.3091 -39.2201
LeftForeArm  136.927 -81.0539 -104.957
LeftHand  -0.400931 15.5005 -3.48852
RightShoulder  0.338092 -1.74474 12.334
RightArm  -11.423 -17.5972 46.8312
RightForeArm  -159.368 55.9104 167.576
RightHand  0.29103 -14.1687 -4.68792
LeftUpLeg  -51.6525 62.098 15.7294
LeftLeg  104.625 -2.25651 6.76305
LeftFoot  26.3469 10.8064 -31.4986
LeftToes  7.40077e-010 7.2695e-011 -6.03601e-011
472
root  -17.7754 35.6168 0.77552 -74.7385 -65.849 59.1914
RightUpLeg  -9.64556 -22.73 -45.1055
RightLeg  64.9755 2.86632 6.10533
RightFoot  -9.87844 -0.345375 21.7505
RightToes  6.35927e-011 1.30204e-014 -6.03759e-014
Spine  27.4953 2.23299 7.97634
Spine1  -2.52279 4.70368 -5.09994
HEad  -8.91415 -16.2841 -19.6532
LeftShoulder1  0.91959 -0.511058 -16.1398
LeftArm  -14.4851 42.7958 -38.5018
LeftForeArm  133.326 -81.1617 -101.567
LeftHand  -0.407442 16.2398 -3.25791
RightShoulder  0.315449 -1.82273 11.8364
RightArm  -13.508 -15.4097 46.6024
RightForeArm  -159.083 56.0419 167.53
RightHand  0.24277 -14.8519 -3.82039
LeftUpLeg  -55.2877 58.5811 13.9398
LeftLeg  106.782 -1.15648 2.47139
LeftFoot  27.4896 10.8681 -30.7158
LeftToes  7.40077e-010 7.2695e-011 -6.03601e-011
473
root  -17.7877 35.9469 0.653175 -71.4629 -63.8198 56.2281
RightUpLeg  -9.36179 -17.2586 -42.8864
RightLeg  63.2891 -0.35082 -1.33529
RightFoot  -9.8883 -0.384518 24.5035
RightToes  6.35927e-011 1.30204e-014 -6.03759e-014
Spine  26.8113 2.28442 6.46667
Spine1  -1.75664 4.29958 -5.0152
HEad  -9.07424 -17.0727 -19.1805
LeftShoulder1  0.979531 -0.747744 -16.2892
LeftArm  -13.8277 41.6312 -37.1349
LeftForeArm  124.066 -81.2851 -93.1555
LeftHand  -0.501525 16.2872 -4.22292
RightShoulder  0.306423 -1.90525 12.2989
RightArm  -15.8033 -16.3025 47.4165
RightForeArm  -158.975 55.5646 167.762
RightHand  0.296098 -14.9814 -4.41547
LeftUpLeg  -54.3057 54.477 12.1336
LeftLeg  105.626 -0.23976 -0.13981
LeftFoot  24.7353 9.98912 -30.5256
LeftToes  7.40077e-010 7.2695e-011 -6.03601e-011
474
root  -17.7841 36.3049 0.531886 -68.1756 -63.0594 53.8805
RightUpLeg  -9.86592 -11.8573 -38.4872
RightLeg  62.019 -5.34933 -11.296
RightFoot  -8.94499 -0.614209 25.9997
RightToes  6.35927e-011 1.30204e-014 -6.03759e-014
Spine  25.7937 2.06649 7.10989
Spine1  -1.11352 4.49536 -6.67376
HEad  -8.95411 -18.1857 -18.6308
LeftShoulder1  1.07791 -1.1541 -16.4038
LeftArm  -12.2367 38.8841 -36.4611
LeftForeArm  113.028 -81.2096 -82.4259
LeftHand  -0.465759 15.6715 -4.0928
RightShoulder  0.351289 -1.77867 13.607
RightArm  -17.3702 -19.0431 48.381
RightForeArm  -158.92 55.2817 167.9
RightHand  0.411563 -14.6014 -5.96885
LeftUpLeg  -50.9549 50.9792 9.98815
LeftLeg  101.994 -1.17236 3.78263
LeftFoot  20.4038 8.7377 -30.5656
LeftToes  7.40077e-010 7.2695e-011 -6.03601e-011
475
root  -17.756 36.6504 0.357019 -63.6978 -63.2809 50.0812
RightUpLeg  -9.65913 -4.82166 -31.951
RightLeg  61.4624 -11.8844 -22.8014
RightFoot  -7.00008 -1.00788 25.08
RightToes  6.35927e-011 1.30204e-014 -6.03759e-014
Spine  25.0501 1.45005 7.89368
Spine1  -1.03272 4.18143 -6.74864
HEad  -8.74759 -18.2033 -18.31
LeftShoulder1  1.1388 -1.37128 -16.6426
LeftArm  -11.6527 37.1494 -37.7356
LeftForeArm  106.735 -81.0342 -75.4275
LeftHand  -0.185594 14.9668 -1.16812
RightShoulder  0.41838 -1.52839 14.5138
RightArm  -17.0757 -21.78 49.9037
RightForeArm  -158.886 56.6201 167.258
RightHand  0.445151 -13.9847 -6.76341
LeftUpLeg  -45.1228 45.9111 8.7239
LeftLeg  95.0427 -1.36367 8.69182
LeftFoot  19.0714 8.76235 -31.9111
LeftToes  7.40077e-010 7.2695e-011 -6.03601e-011
476
root  -17.7207 36.8094 0.047772 -58.0779 -62.6404 44.8104
RightUpLeg  -8.36202 3.44444 -25.1922
RightLeg  62.7346 -18.6483 -34.4505
RightFoot  -5.43305 -1.19972 22.2001
RightToes  6.35927e-011 1.30204e-014 -6.03759e-014
Spine  24.8484 0.650314 5.90506
Spine1  -1.24038 2.6645 -4.61817
HEad  -9.33167 -17.0336 -17.4632
LeftShoulder1  1.15633 -1.34641 -17.1672
LeftArm  -12.4721 37.0858 -40.7242
LeftForeArm  110.034 -81.1541 -77.7784
LeftHand  0.0419677 14.1146 1.49494
RightShoulder  0.44705 -1.39369 14.4973
RightArm  -15.4598 -24.0254 51.889
RightForeArm  -159.467 59.5996 165.628
RightHand  0.35035 -13.8152 -5.66971
LeftUpLeg  -38.0112 36.6493 7.06795
LeftLeg  84.8375 0.143662 8.9413
LeftFoot  22.06 9.75622 -32.2717
LeftToes  7.40077e-010 7.2695e-011 -6.03601e-011
477
root  -17.7419 36.6916 -0.146778 -51.296 -61.2192 38.8369
RightUpLeg  -6.98836 8.75024 -20.1882
RightLeg  64.9095 -23.5312 -43.3235
RightFoot  -5.67508 -1.07541 20.7489
RightToes  6.35927e-011 1.30204e-014 -6.03759e-014
Spine  24.0608 -0.402993 3.20397
Spine1  -0.909745 0.685583 -2.61064
HEad  -10.9582 -16.1288 -15.4001
LeftShoulder1  1.13359 -1.15185 -17.7141
LeftArm  -12.428 36.3364 -44.3956
LeftForeArm  122.546 -81.3488 -90.3555
LeftHand  -0.0678831 12.6737 -0.0198281
RightShoulder  0.470698 -1.30248 14.6972
RightArm  -14.7988 -26.5774 52.5536
RightForeArm  -162.019 62.8896 163.35
RightHand  0.235332 -14.6893 -3.808
LeftUpLeg  -31.7594 23.9141 4.06305
LeftLeg  73.5686 1.61349 7.20667
LeftFoot  25.7183 9.56095 -28.5485
LeftToes  7.40077e-010 7.2695e-011 -6.03601e-011
478
root  -17.7588 36.5346 -0.145429 -44.439 -61.3811 33.4877
RightUpLeg  -6.94764 8.31958 -17.4616
RightLeg  64.5675 -25.7137 -45.2655
RightFoot  -7.76172 -0.769858 22.8658
RightToes  6.35927e-011 1.30204e-014 -6.03759e-014
Spine  22.5492 -1.13047 3.24142
Spine1  -0.215743 -0.00249661 -2.939
HEad  -12.5749 -16.62 -12.728
LeftShoulder1  1.06246 -0.851591 -17.757
LeftArm  -8.57353 33.3513 -47.9132
LeftForeArm  139.638 -80.841 -108.597
LeftHand  -0.262679 11.0611 -3.97133
RightShoulder  0.53468 -1.11888 15.8281
RightArm  -16.5194 -30.4604 50.3043
RightForeArm  -166.861 65.0861 161.243
RightHand  0.237566 -16.4032 -3.29704
LeftUpLeg  -26.3912 12.5366 1.57881
LeftLeg  63.8029 4.54251 10.3387
LeftFoot  25.5316 7.32602 -22.1168
LeftToes  7.40077e-010 7.2695e-011 -6.03601e-011
